<svg aria-hidden="true" style="position: absolute; width: 0; height: 0; overflow: hidden;" version="1.1" xmlns="http://www.w3.org/2000/svg" xmlns:xlink="http://www.w3.org/1999/xlink">
<defs>
<symbol id="icon-bar-chart" viewBox="0 0 24 24">
<title>bar-chart</title>
<path d="M19 20v-10c0-0.552-0.448-1-1-1s-1 0.448-1 1v10c0 0.552 0.448 1 1 1s1-0.448 1-1zM13 20v-16c0-0.552-0.448-1-1-1s-1 0.448-1 1v16c0 0.552 0.448 1 1 1s1-0.448 1-1zM7 20v-6c0-0.552-0.448-1-1-1s-1 0.448-1 1v6c0 0.552 0.448 1 1 1s1-0.448 1-1z"></path>
</symbol>
<symbol id="icon-bell" viewBox="0 0 24 24">
<title>bell</title>
<path d="M17 8c0 1.894 0.211 3.458 0.533 4.741 0.288 1.148 0.664 2.068 1.052 2.794 0.088 0.165 0.177 0.32 0.266 0.465h-13.702c0.089-0.145 0.177-0.3 0.266-0.465 0.388-0.726 0.764-1.645 1.052-2.794 0.322-1.283 0.533-2.847 0.533-4.741 0-0.679 0.135-1.324 0.378-1.912 0.253-0.611 0.625-1.162 1.086-1.624s1.013-0.833 1.624-1.086c0.588-0.243 1.233-0.378 1.912-0.378s1.324 0.135 1.912 0.378c0.611 0.253 1.162 0.624 1.624 1.086s0.833 1.013 1.086 1.624c0.243 0.588 0.378 1.233 0.378 1.912zM19 8c0-0.946-0.188-1.851-0.53-2.677-0.355-0.857-0.875-1.628-1.52-2.273s-1.415-1.165-2.273-1.52c-0.826-0.342-1.731-0.53-2.677-0.53s-1.851 0.188-2.677 0.53c-0.858 0.356-1.628 0.876-2.273 1.52s-1.164 1.415-1.52 2.273c-0.342 0.826-0.53 1.731-0.53 2.677 0 1.745-0.194 3.145-0.473 4.255-0.249 0.993-0.566 1.758-0.875 2.336-0.314 0.586-0.622 0.984-0.849 1.234-0.21 0.232-0.353 0.339-0.369 0.35-0.45 0.309-0.57 0.923-0.266 1.379 0.192 0.288 0.506 0.444 0.832 0.446h18c0.552 0 1-0.448 1-1 0-0.346-0.175-0.65-0.445-0.832 0.009 0.006-0.137-0.099-0.358-0.343-0.227-0.25-0.535-0.648-0.849-1.234-0.309-0.578-0.626-1.343-0.875-2.336-0.279-1.11-0.473-2.51-0.473-4.255zM12.865 20.498c-0.069 0.119-0.157 0.216-0.257 0.293-0.105 0.080-0.224 0.138-0.351 0.172s-0.26 0.043-0.39 0.025c-0.125-0.017-0.25-0.058-0.368-0.127-0.162-0.094-0.283-0.222-0.359-0.357-0.274-0.48-0.884-0.647-1.364-0.373s-0.647 0.884-0.373 1.364c0.25 0.439 0.623 0.823 1.093 1.096 0.35 0.203 0.726 0.328 1.107 0.379 0.395 0.053 0.792 0.026 1.169-0.075s0.735-0.274 1.052-0.516c0.305-0.233 0.57-0.529 0.773-0.878 0.277-0.478 0.114-1.090-0.363-1.367s-1.090-0.114-1.367 0.363z"></path>
</symbol>
<symbol id="icon-credit-card" viewBox="0 0 24 24">
<title>credit-card</title>
<path d="M3 3c-0.405 0-0.793 0.081-1.148 0.228-0.367 0.152-0.697 0.375-0.973 0.651s-0.499 0.606-0.651 0.973c-0.147 0.355-0.228 0.743-0.228 1.148v12c0 0.405 0.081 0.793 0.228 1.148 0.152 0.368 0.375 0.698 0.651 0.974s0.606 0.499 0.974 0.651c0.354 0.146 0.742 0.227 1.147 0.227h18c0.405 0 0.793-0.081 1.148-0.228 0.368-0.152 0.698-0.375 0.974-0.651s0.499-0.606 0.651-0.974c0.146-0.354 0.227-0.742 0.227-1.147v-12c0-0.405-0.081-0.793-0.228-1.148-0.152-0.368-0.375-0.698-0.651-0.974s-0.606-0.499-0.974-0.651c-0.354-0.146-0.742-0.227-1.147-0.227zM22 9h-20v-3c0-0.137 0.027-0.266 0.075-0.382 0.050-0.122 0.125-0.232 0.218-0.325s0.203-0.167 0.325-0.218c0.116-0.048 0.245-0.075 0.382-0.075h18c0.137 0 0.266 0.027 0.382 0.075 0.122 0.050 0.232 0.125 0.325 0.218s0.167 0.203 0.218 0.325c0.048 0.116 0.075 0.245 0.075 0.382zM2 11h20v7c0 0.137-0.027 0.266-0.075 0.382-0.050 0.122-0.125 0.232-0.218 0.325s-0.203 0.167-0.325 0.218c-0.116 0.048-0.245 0.075-0.382 0.075h-18c-0.137 0-0.266-0.027-0.382-0.075-0.122-0.050-0.232-0.125-0.325-0.218s-0.167-0.203-0.218-0.325c-0.048-0.116-0.075-0.245-0.075-0.382z"></path>
</symbol>
<symbol id="icon-dollar-sign" viewBox="0 0 24 24">
<title>dollar-sign</title>
<path d="M11 11h-1.5c-0.34 0-0.663-0.068-0.956-0.189-0.305-0.126-0.581-0.312-0.812-0.543s-0.417-0.507-0.543-0.812c-0.121-0.293-0.189-0.616-0.189-0.956s0.068-0.663 0.189-0.956c0.126-0.305 0.312-0.581 0.543-0.812s0.507-0.417 0.812-0.543c0.293-0.121 0.616-0.189 0.956-0.189h1.5zM13 13h1.5c0.34 0 0.663 0.068 0.956 0.189 0.305 0.126 0.581 0.312 0.812 0.543s0.417 0.507 0.543 0.812c0.121 0.293 0.189 0.616 0.189 0.956s-0.068 0.663-0.189 0.956c-0.126 0.305-0.312 0.581-0.543 0.812s-0.507 0.417-0.812 0.543c-0.293 0.121-0.616 0.189-0.956 0.189h-1.5zM17 4h-4v-3c0-0.552-0.448-1-1-1s-1 0.448-1 1v3h-1.5c-0.608 0-1.19 0.121-1.721 0.341-0.552 0.229-1.047 0.563-1.461 0.977s-0.748 0.909-0.977 1.461c-0.22 0.531-0.341 1.113-0.341 1.721s0.121 1.19 0.341 1.721c0.228 0.551 0.563 1.047 0.977 1.461s0.909 0.748 1.461 0.977c0.531 0.22 1.113 0.341 1.721 0.341h1.5v5h-5c-0.552 0-1 0.448-1 1s0.448 1 1 1h5v3c0 0.552 0.448 1 1 1s1-0.448 1-1v-3h1.5c0.608 0 1.19-0.121 1.721-0.341 0.551-0.228 1.047-0.563 1.461-0.977s0.748-0.909 0.977-1.461c0.22-0.531 0.341-1.113 0.341-1.721s-0.121-1.19-0.341-1.721c-0.228-0.551-0.563-1.047-0.977-1.461s-0.909-0.748-1.461-0.977c-0.531-0.22-1.113-0.341-1.721-0.341h-1.5v-5h4c0.552 0 1-0.448 1-1s-0.448-1-1-1z"></path>
</symbol>
<symbol id="icon-edit" viewBox="0 0 24 24">
<title>edit</title>
<path d="M16.293 2.293l-13.5 13.5c-0.117 0.116-0.21 0.268-0.258 0.444l-1.5 5.5c-0.046 0.163-0.049 0.346 0 0.526 0.145 0.533 0.695 0.847 1.228 0.702l5.5-1.5c0.159-0.042 0.315-0.129 0.444-0.258l13.5-13.5c0.365-0.365 0.643-0.788 0.83-1.241 0.194-0.469 0.291-0.968 0.291-1.466s-0.097-0.997-0.291-1.466c-0.187-0.452-0.465-0.875-0.83-1.241s-0.788-0.643-1.241-0.83c-0.469-0.195-0.968-0.291-1.466-0.291s-0.997 0.097-1.466 0.291c-0.452 0.187-0.875 0.465-1.241 0.83zM17.707 3.707c0.176-0.176 0.378-0.308 0.592-0.397 0.223-0.092 0.462-0.139 0.701-0.139s0.478 0.047 0.701 0.139c0.214 0.089 0.415 0.22 0.592 0.397s0.308 0.378 0.397 0.592c0.092 0.223 0.138 0.462 0.138 0.701s-0.047 0.478-0.139 0.701c-0.089 0.214-0.22 0.415-0.397 0.592l-13.311 13.312-3.556 0.97 0.97-3.555z"></path>
</symbol>
<symbol id="icon-folder" viewBox="0 0 24 24">
<title>folder</title>
<path d="M23 19v-11c0-0.405-0.081-0.793-0.228-1.148-0.152-0.368-0.375-0.698-0.651-0.974s-0.606-0.499-0.974-0.651c-0.354-0.146-0.742-0.227-1.147-0.227h-8.465l-1.703-2.555c-0.182-0.27-0.486-0.445-0.832-0.445h-5c-0.405 0-0.793 0.081-1.148 0.228-0.367 0.152-0.697 0.375-0.973 0.651s-0.499 0.606-0.651 0.973c-0.147 0.355-0.228 0.743-0.228 1.148v14c0 0.405 0.081 0.793 0.228 1.148 0.152 0.368 0.375 0.698 0.651 0.974s0.606 0.499 0.974 0.651c0.354 0.146 0.742 0.227 1.147 0.227h16c0.405 0 0.793-0.081 1.148-0.228 0.368-0.152 0.698-0.375 0.974-0.651s0.499-0.606 0.651-0.974c0.146-0.354 0.227-0.742 0.227-1.147zM21 19c0 0.137-0.027 0.266-0.075 0.382-0.050 0.122-0.125 0.232-0.218 0.325s-0.203 0.167-0.325 0.218c-0.116 0.048-0.245 0.075-0.382 0.075h-16c-0.137 0-0.266-0.027-0.382-0.075-0.122-0.050-0.232-0.125-0.325-0.218s-0.167-0.203-0.218-0.325c-0.048-0.116-0.075-0.245-0.075-0.382v-14c0-0.137 0.027-0.266 0.075-0.382 0.050-0.122 0.125-0.232 0.218-0.325s0.203-0.167 0.325-0.218c0.116-0.048 0.245-0.075 0.382-0.075h4.465l1.703 2.555c0.192 0.287 0.506 0.443 0.832 0.445h9c0.137 0 0.266 0.027 0.382 0.075 0.122 0.050 0.232 0.125 0.325 0.218s0.167 0.203 0.218 0.325c0.048 0.116 0.075 0.245 0.075 0.382z"></path>
</symbol>
<symbol id="icon-menu" viewBox="0 0 24 24">
<title>menu</title>
<path d="M3 13h18c0.552 0 1-0.448 1-1s-0.448-1-1-1h-18c-0.552 0-1 0.448-1 1s0.448 1 1 1zM3 7h18c0.552 0 1-0.448 1-1s-0.448-1-1-1h-18c-0.552 0-1 0.448-1 1s0.448 1 1 1zM3 19h18c0.552 0 1-0.448 1-1s-0.448-1-1-1h-18c-0.552 0-1 0.448-1 1s0.448 1 1 1z"></path>
</symbol>
<symbol id="icon-repeat" viewBox="0 0 24 24">
<title>repeat</title>
<path d="M4 11v-2c0-0.408 0.081-0.795 0.227-1.147 0.152-0.366 0.375-0.697 0.652-0.974s0.608-0.5 0.974-0.652c0.352-0.146 0.739-0.227 1.147-0.227h11.586l-2.293 2.293c-0.391 0.391-0.391 1.024 0 1.414s1.024 0.391 1.414 0l4-4c0.096-0.096 0.168-0.207 0.217-0.325 0.049-0.12 0.075-0.247 0.076-0.374 0-0.005 0-0.011 0-0.016-0.001-0.127-0.026-0.255-0.076-0.374-0.049-0.118-0.121-0.229-0.217-0.325l-4-4c-0.391-0.391-1.024-0.391-1.414 0s-0.391 1.024 0 1.414l2.293 2.293h-11.586c-0.675 0-1.322 0.134-1.912 0.379-0.613 0.254-1.163 0.625-1.624 1.085s-0.831 1.011-1.085 1.624c-0.245 0.59-0.379 1.237-0.379 1.912v2c0 0.552 0.448 1 1 1s1-0.448 1-1zM20 13v2c0 0.408-0.081 0.795-0.227 1.147-0.152 0.366-0.375 0.697-0.652 0.974s-0.608 0.5-0.974 0.652c-0.352 0.146-0.739 0.227-1.147 0.227h-11.586l2.293-2.293c0.391-0.391 0.391-1.024 0-1.414s-1.024-0.391-1.414 0l-4 4c-0.096 0.096-0.169 0.207-0.217 0.325-0.050 0.119-0.075 0.245-0.076 0.372 0 0.007 0 0.014 0 0.020 0.001 0.127 0.026 0.253 0.075 0.372s0.121 0.229 0.217 0.325l4 4c0.391 0.391 1.024 0.391 1.414 0s0.391-1.024 0-1.414l-2.292-2.293h11.586c0.675 0 1.322-0.134 1.912-0.379 0.613-0.254 1.163-0.625 1.623-1.085s0.832-1.011 1.085-1.623c0.246-0.591 0.38-1.238 0.38-1.913v-2c0-0.552-0.448-1-1-1s-1 0.448-1 1z"></path>
</symbol>
<symbol id="icon-search" viewBox="0 0 24 24">
<title>search</title>
<path d="M16.041 15.856c-0.034 0.026-0.067 0.055-0.099 0.087s-0.060 0.064-0.087 0.099c-0.627 0.604-1.365 1.091-2.18 1.429-0.822 0.34-1.725 0.529-2.675 0.529s-1.853-0.189-2.677-0.53c-0.856-0.354-1.627-0.874-2.273-1.521s-1.166-1.417-1.521-2.273c-0.34-0.823-0.529-1.726-0.529-2.676s0.189-1.853 0.53-2.677c0.354-0.855 0.874-1.627 1.52-2.273s1.418-1.166 2.273-1.52c0.824-0.341 1.727-0.53 2.677-0.53s1.853 0.189 2.677 0.53c0.856 0.354 1.627 0.874 2.273 1.521s1.166 1.417 1.521 2.273c0.34 0.823 0.529 1.726 0.529 2.676s-0.189 1.853-0.53 2.677c-0.338 0.815-0.825 1.553-1.429 2.18zM21.707 20.293l-3.675-3.675c0.525-0.656 0.96-1.387 1.286-2.176 0.44-1.062 0.682-2.225 0.682-3.442s-0.242-2.38-0.682-3.442c-0.456-1.102-1.125-2.093-1.954-2.922s-1.82-1.498-2.922-1.954c-1.062-0.44-2.225-0.682-3.442-0.682s-2.38 0.242-3.442 0.682c-1.102 0.456-2.093 1.125-2.922 1.954s-1.498 1.82-1.954 2.922c-0.44 1.062-0.682 2.225-0.682 3.442s0.242 2.38 0.682 3.442c0.456 1.102 1.125 2.093 1.954 2.922s1.82 1.498 2.922 1.954c1.062 0.44 2.225 0.682 3.442 0.682s2.38-0.242 3.442-0.682c0.788-0.327 1.52-0.762 2.176-1.286l3.675 3.675c0.391 0.391 1.024 0.391 1.414 0s0.391-1.024 0-1.414z"></path>
</symbol>
<symbol id="icon-sliders" viewBox="0 0 24 24">
<title>sliders</title>
<path d="M5 10v-7c0-0.552-0.448-1-1-1s-1 0.448-1 1v7c0 0.552 0.448 1 1 1s1-0.448 1-1zM13 21v-9c0-0.552-0.448-1-1-1s-1 0.448-1 1v9c0 0.552 0.448 1 1 1s1-0.448 1-1zM21 12v-9c0-0.552-0.448-1-1-1s-1 0.448-1 1v9c0 0.552 0.448 1 1 1s1-0.448 1-1zM1 15h2v6c0 0.552 0.448 1 1 1s1-0.448 1-1v-6h2c0.552 0 1-0.448 1-1s-0.448-1-1-1h-6c-0.552 0-1 0.448-1 1s0.448 1 1 1zM9 9h6c0.552 0 1-0.448 1-1s-0.448-1-1-1h-2v-4c0-0.552-0.448-1-1-1s-1 0.448-1 1v4h-2c-0.552 0-1 0.448-1 1s0.448 1 1 1zM17 17h2v4c0 0.552 0.448 1 1 1s1-0.448 1-1v-4h2c0.552 0 1-0.448 1-1s-0.448-1-1-1h-6c-0.552 0-1 0.448-1 1s0.448 1 1 1z"></path>
</symbol>
<symbol id="icon-upload" viewBox="0 0 24 24">
<title>upload</title>
<path d="M20 15v4c0 0.137-0.027 0.266-0.075 0.382-0.050 0.122-0.125 0.232-0.218 0.325s-0.203 0.167-0.325 0.218c-0.116 0.048-0.245 0.075-0.382 0.075h-14c-0.137 0-0.266-0.027-0.382-0.075-0.122-0.050-0.232-0.125-0.325-0.218s-0.167-0.203-0.218-0.325c-0.048-0.116-0.075-0.245-0.075-0.382v-4c0-0.552-0.448-1-1-1s-1 0.448-1 1v4c0 0.405 0.081 0.793 0.228 1.148 0.152 0.368 0.375 0.698 0.651 0.974s0.606 0.499 0.974 0.651c0.354 0.146 0.742 0.227 1.147 0.227h14c0.405 0 0.793-0.081 1.148-0.228 0.368-0.152 0.698-0.375 0.974-0.651s0.499-0.606 0.651-0.974c0.146-0.354 0.227-0.742 0.227-1.147v-4c0-0.552-0.448-1-1-1s-1 0.448-1 1zM11 5.414v9.586c0 0.552 0.448 1 1 1s1-0.448 1-1v-9.586l3.293 3.293c0.391 0.391 1.024 0.391 1.414 0s0.391-1.024 0-1.414l-5-5c-0.001-0.001-0.003-0.002-0.004-0.004-0.095-0.094-0.204-0.165-0.32-0.213-0.245-0.101-0.521-0.101-0.766 0-0.116 0.048-0.225 0.119-0.32 0.213-0.001 0.001-0.003 0.002-0.004 0.004l-5 5c-0.391 0.391-0.391 1.024 0 1.414s1.024 0.391 1.414 0z"></path>
</symbol>
<symbol id="icon-user" viewBox="0 0 24 24">
<title>user</title>
<path d="M21 21v-2c0-0.675-0.134-1.322-0.379-1.912-0.254-0.613-0.625-1.163-1.085-1.623s-1.011-0.832-1.623-1.085c-0.591-0.246-1.238-0.38-1.913-0.38h-8c-0.675 0-1.322 0.134-1.912 0.379-0.613 0.254-1.163 0.625-1.623 1.085s-0.832 1.011-1.085 1.623c-0.246 0.591-0.38 1.238-0.38 1.913v2c0 0.552 0.448 1 1 1s1-0.448 1-1v-2c0-0.408 0.081-0.795 0.227-1.147 0.152-0.366 0.375-0.697 0.652-0.974s0.608-0.5 0.974-0.652c0.352-0.146 0.739-0.227 1.147-0.227h8c0.408 0 0.795 0.081 1.147 0.227 0.366 0.152 0.697 0.375 0.974 0.652s0.5 0.608 0.652 0.974c0.146 0.352 0.227 0.739 0.227 1.147v2c0 0.552 0.448 1 1 1s1-0.448 1-1zM17 7c0-0.675-0.134-1.322-0.379-1.912-0.254-0.613-0.625-1.163-1.085-1.623s-1.011-0.832-1.623-1.085c-0.591-0.246-1.238-0.38-1.913-0.38s-1.322 0.134-1.912 0.379c-0.613 0.254-1.163 0.625-1.624 1.085s-0.831 1.011-1.085 1.624c-0.245 0.59-0.379 1.237-0.379 1.912s0.134 1.322 0.379 1.912c0.254 0.613 0.625 1.163 1.085 1.623s1.011 0.832 1.623 1.085c0.591 0.246 1.238 0.38 1.913 0.38s1.322-0.134 1.912-0.379c0.613-0.254 1.163-0.625 1.623-1.085s0.832-1.011 1.085-1.623c0.246-0.591 0.38-1.238 0.38-1.913zM15 7c0 0.408-0.081 0.795-0.227 1.147-0.152 0.366-0.375 0.697-0.652 0.974s-0.608 0.5-0.974 0.652c-0.352 0.146-0.739 0.227-1.147 0.227s-0.795-0.081-1.147-0.227c-0.366-0.152-0.697-0.375-0.974-0.652s-0.5-0.608-0.652-0.974c-0.146-0.352-0.227-0.739-0.227-1.147s0.081-0.795 0.227-1.147c0.152-0.366 0.375-0.697 0.652-0.974s0.608-0.5 0.974-0.652c0.352-0.146 0.739-0.227 1.147-0.227s0.795 0.081 1.147 0.227c0.366 0.152 0.697 0.375 0.974 0.652s0.5 0.608 0.652 0.974c0.146 0.352 0.227 0.739 0.227 1.147z"></path>
</symbol>
<symbol id="icon-x" viewBox="0 0 24 24">
<title>x</title>
<path d="M5.293 6.707l5.293 5.293-5.293 5.293c-0.391 0.391-0.391 1.024 0 1.414s1.024 0.391 1.414 0l5.293-5.293 5.293 5.293c0.391 0.391 1.024 0.391 1.414 0s0.391-1.024 0-1.414l-5.293-5.293 5.293-5.293c0.391-0.391 0.391-1.024 0-1.414s-1.024-0.391-1.414 0l-5.293 5.293-5.293-5.293c-0.391-0.391-1.024-0.391-1.414 0s-0.391 1.024 0 1.414z"></path>
</symbol>
</defs>
</svg>
